<svg width="25" height="24" viewBox="0 0 25 24" fill="none" xmlns="http://www.w3.org/2000/svg">
<path fill-rule="evenodd" clip-rule="evenodd" d="M13.4379 2H10.8308V22H13.4379C17.8719 22 21.2593 17.3921 21.2593 12C21.2593 6.60791 17.8719 2 13.4379 2Z" fill="#E6B900"/>
<path fill-rule="evenodd" clip-rule="evenodd" d="M11.0807 2C6.64667 2 3.25928 6.60791 3.25928 12C3.25928 17.3921 6.64667 22 11.0807 22C15.5146 22 18.902 17.3921 18.902 12C18.902 6.60791 15.5146 2 11.0807 2Z" fill="#FFCF08"/>
<path d="M10.8864 7.22511C10.9563 7.04866 11.2037 7.04866 11.2737 7.22511L12.2873 9.78304C12.3147 9.85203 12.376 9.90137 12.4488 9.91285L14.8821 10.2968C15.0435 10.3223 15.1146 10.5165 15.0084 10.6417L13.2274 12.7422C13.1882 12.7884 13.1707 12.8494 13.1795 12.9096L13.5939 15.7677C13.6195 15.9439 13.4302 16.0706 13.2794 15.9782L11.1882 14.6974C11.1217 14.6567 11.0383 14.6567 10.9718 14.6974L8.88068 15.9782C8.72983 16.0706 8.54056 15.9439 8.56611 15.7677L8.98059 12.9096C8.98931 12.8494 8.97184 12.7884 8.93268 12.7422L7.15165 10.6417C7.04548 10.5165 7.11658 10.3223 7.2779 10.2968L9.71127 9.91285C9.78401 9.90137 9.84536 9.85203 9.87271 9.78304L10.8864 7.22511Z" fill="#CCA500"/>
</svg>
