<svg width="16" height="16" viewBox="0 0 16 16" fill="none" xmlns="http://www.w3.org/2000/svg">
<path d="M8.00065 13.3333H3.46732C2.72058 13.3333 2.34721 13.3333 2.062 13.188C1.81111 13.0601 1.60714 12.8562 1.47931 12.6053C1.33398 12.3201 1.33398 11.9467 1.33398 11.2V4.79996C1.33398 4.05322 1.33398 3.67985 1.47931 3.39464C1.60714 3.14376 1.81111 2.93978 2.062 2.81195C2.34721 2.66663 2.72058 2.66663 3.46732 2.66663H3.73398C5.22746 2.66663 5.97419 2.66663 6.54463 2.95728C7.04639 3.21294 7.45434 3.62089 7.71 4.12265C8.00065 4.69308 8.00065 5.43982 8.00065 6.93329M8.00065 13.3333V6.93329M8.00065 13.3333H12.534C13.2807 13.3333 13.6541 13.3333 13.9393 13.188C14.1902 13.0601 14.3942 12.8562 14.522 12.6053C14.6673 12.3201 14.6673 11.9467 14.6673 11.2V4.79996C14.6673 4.05322 14.6673 3.67985 14.522 3.39464C14.3942 3.14376 14.1902 2.93978 13.9393 2.81195C13.6541 2.66663 13.2807 2.66663 12.534 2.66663H12.2673C10.7738 2.66663 10.0271 2.66663 9.45668 2.95728C8.95491 3.21294 8.54696 3.62089 8.2913 4.12265C8.00065 4.69308 8.00065 5.43982 8.00065 6.93329" stroke="#1D1D1D" stroke-width="1.2" stroke-linecap="round" stroke-linejoin="round"/>
</svg>
