<svg width="16" height="16" viewBox="0 0 16 16" fill="none" xmlns="http://www.w3.org/2000/svg">
<path d="M15.246 8.08077L15.6702 7.65644L14.8216 6.80804L14.3974 7.23237L15.246 8.08077ZM13.4088 9.0699L12.9846 9.49423L13.4089 9.91843L13.8331 9.4941L13.4088 9.0699ZM12.4192 7.23224L11.9949 6.80804L11.1465 7.6567L11.5708 8.0809L12.4192 7.23224ZM12.9852 8.65065C12.9488 8.98001 13.1863 9.27653 13.5157 9.31294C13.845 9.34935 14.1415 9.11186 14.1779 8.78249L12.9852 8.65065ZM12.6735 12.3852L13.0509 11.9188L12.1181 11.1639L11.7406 11.6303L12.6735 12.3852ZM7.86039 4.47657V3.87657H6.66039V4.47657H7.86039ZM7.26039 8.0099H6.66039V8.25724L6.83468 8.43272L7.26039 8.0099ZM8.53853 10.1482L8.96135 10.5739L9.81276 9.72828L9.38995 9.30258L8.53853 10.1482ZM14.3974 7.23237L12.9844 8.6457L13.8331 9.4941L15.246 8.08077L14.3974 7.23237ZM13.833 8.64558L12.4192 7.23224L11.5708 8.0809L12.9846 9.49423L13.833 8.64558ZM7.26039 13.7699C4.07923 13.7699 1.50039 11.1911 1.50039 8.0099H0.300391C0.300391 11.8538 3.41649 14.9699 7.26039 14.9699V13.7699ZM1.50039 8.0099C1.50039 4.82874 4.07923 2.2499 7.26039 2.2499V1.0499C3.41649 1.0499 0.300391 4.166 0.300391 8.0099H1.50039ZM7.26039 2.2499C10.4416 2.2499 13.0204 4.82874 13.0204 8.0099H14.2204C14.2204 4.166 11.1043 1.0499 7.26039 1.0499V2.2499ZM13.0204 8.0099C13.0204 8.2267 13.0084 8.44047 12.9852 8.65065L14.1779 8.78249C14.206 8.52862 14.2204 8.27083 14.2204 8.0099H13.0204ZM11.7406 11.6303C10.6837 12.9365 9.06959 13.7699 7.26039 13.7699V14.9699C9.44706 14.9699 11.3985 13.9608 12.6735 12.3852L11.7406 11.6303ZM6.66039 4.47657V8.0099H7.86039V4.47657H6.66039ZM6.83468 8.43272L8.53853 10.1482L9.38995 9.30258L7.6861 7.58709L6.83468 8.43272Z" fill="#1D1D1D"/>
</svg>
