<svg width="16" height="16" viewBox="0 0 16 16" fill="none" xmlns="http://www.w3.org/2000/svg">
<path d="M5.05895 3.47569C4.65827 3.37069 4.41857 2.96075 4.52357 2.56006C4.62857 2.15938 5.03851 1.91968 5.43919 2.02468L13.1606 4.04812C13.3991 4.1106 13.5911 4.27996 13.6768 4.49219C13.8293 5.04785 13.879 5.71539 13.946 6.61492C13.9796 7.06701 14 7.53336 14 7.99971V12.6674C14 13.2952 14 13.6092 13.8047 13.8044C13.6095 13.9997 13.2955 13.9997 12.6677 13.9997H11.5V11.1667C11.5 10.7985 11.2015 10.5 10.8333 10.5H10.1667C9.79848 10.5 9.5 10.7985 9.5 11.1667V13.9997H6.99935V3.98418L5.05895 3.47569Z" fill="#BBC1C7"/>
<path d="M2 10.0451C1.99943 8.79722 2.83913 7.7054 4.04532 7.38564L5.5 7V13.9997H3.33234C2.70446 13.9997 2.39053 13.9997 2.19526 13.8044C2 13.6092 2 13.2952 2 12.6674V10.0451Z" fill="#BBC1C7"/>
</svg>
