<svg width="16" height="16" viewBox="0 0 16 16" fill="none" xmlns="http://www.w3.org/2000/svg">
    <path d="M5.00222 11.919H5.60222V11.319H5.00222V11.919ZM2.60162 11.919L2.00162 11.919C2.00162 12.2504 2.27025 12.519 2.60162 12.519V11.919ZM8.01754 11.919L8.02178 11.319L7.80392 11.3175L7.63582 11.4561L8.01754 11.919ZM5.00222 14.4054H4.40222C4.40222 14.6376 4.53625 14.849 4.74632 14.9481C4.95638 15.0471 5.20475 15.0161 5.38393 14.8683L5.00222 14.4054ZM13.4043 11.957L13.4001 12.557C13.5599 12.5582 13.7136 12.4954 13.8271 12.3828C13.9405 12.2702 14.0043 12.1169 14.0043 11.957H13.4043ZM13.4043 2.60076H14.0043C14.0043 2.26939 13.7357 2.00077 13.4043 2.00076L13.4043 2.60076ZM2.60156 2.60071L2.60157 2.00071C2.44243 2.00071 2.28982 2.06392 2.1773 2.17644C2.06478 2.28897 2.00156 2.44158 2.00156 2.60071L2.60156 2.60071ZM2.60156 3.20071L13.4043 3.20076L13.4043 2.00076L2.60157 2.00071L2.60156 3.20071ZM12.8043 2.60076V11.957H14.0043V2.60076H12.8043ZM13.4085 11.3571L8.02178 11.319L8.0133 12.519L13.4001 12.557L13.4085 11.3571ZM7.63582 11.4561L4.6205 13.9425L5.38393 14.8683L8.39926 12.3819L7.63582 11.4561ZM3.20162 11.919L3.20156 2.6007L2.00156 2.60071L2.00162 11.919L3.20162 11.919ZM5.60222 14.4054V11.919H4.40222V14.4054H5.60222ZM5.00222 11.319H2.60162V12.519H5.00222V11.319Z"
          fill="#A6A6A6"/>
</svg>
