<svg width="16" height="16" viewBox="0 0 16 16" fill="none" xmlns="http://www.w3.org/2000/svg">
<path d="M2.4344 9.43436L1.86871 10L3.00008 11.1314L3.56577 10.5657L2.4344 9.43436ZM13.3334 10L13.8991 10.5657L14.1334 10.3314V10H13.3334ZM13.3334 2.00004H14.1334V0.705613L12.9756 1.2845L13.3334 2.00004ZM2.66675 2.00004L2.10106 1.43436C1.95103 1.58438 1.86675 1.78787 1.86675 2.00004L2.66675 2.00004ZM1.86675 14.6667L1.86675 15.4667H3.46675L3.46675 14.6667H1.86675ZM3.00008 10C3.56577 10.5657 3.56542 10.5661 3.56508 10.5664C3.56497 10.5665 3.56463 10.5669 3.56441 10.5671C3.56397 10.5675 3.56354 10.5679 3.56311 10.5684C3.56226 10.5692 3.56145 10.57 3.56067 10.5708C3.55912 10.5723 3.55771 10.5737 3.55644 10.5749C3.55391 10.5773 3.55196 10.5791 3.5506 10.5804C3.54788 10.5829 3.54751 10.5831 3.54956 10.5814C3.55367 10.5779 3.5675 10.5665 3.59164 10.5494C3.63975 10.5155 3.72968 10.4586 3.86666 10.3978C4.13777 10.2773 4.61025 10.1334 5.33341 10.1334V8.53337C4.38992 8.53337 3.69573 8.72282 3.21684 8.93566C2.97882 9.04144 2.79792 9.15126 2.66894 9.2423C2.60454 9.28776 2.55326 9.32842 2.5144 9.36139C2.49497 9.37787 2.47865 9.39243 2.46535 9.40471C2.4587 9.41085 2.4528 9.41642 2.44765 9.42138C2.44507 9.42385 2.44268 9.42618 2.44047 9.42834C2.43937 9.42943 2.43831 9.43047 2.4373 9.43147C2.43679 9.43197 2.43629 9.43246 2.43581 9.43294C2.43557 9.43318 2.43522 9.43354 2.43509 9.43366C2.43474 9.43401 2.4344 9.43436 3.00008 10ZM5.33341 10.1334C6.15797 10.1334 6.85516 10.4037 7.70297 10.7428C8.52182 11.0704 9.4913 11.4667 10.6667 11.4667V9.86671C9.84219 9.86671 9.145 9.59638 8.29719 9.25726C7.47834 8.92972 6.50886 8.53337 5.33341 8.53337V10.1334ZM10.6667 11.4667C11.7569 11.4667 12.5258 11.2847 13.0472 11.0762C13.3072 10.9722 13.5021 10.8629 13.6418 10.7698C13.7114 10.7234 13.7669 10.6813 13.8094 10.6462C13.8307 10.6287 13.8487 10.613 13.8636 10.5995C13.871 10.5927 13.8777 10.5865 13.8836 10.5808C13.8866 10.578 13.8893 10.5753 13.8919 10.5728C13.8932 10.5716 13.8944 10.5703 13.8956 10.5692C13.8962 10.5686 13.8968 10.568 13.8974 10.5674C13.8977 10.5671 13.8981 10.5667 13.8983 10.5666C13.8987 10.5661 13.8991 10.5657 13.3334 10C12.7677 9.43436 12.7681 9.43394 12.7686 9.43353C12.7687 9.4334 12.7691 9.43299 12.7694 9.43273C12.7699 9.4322 12.7704 9.43168 12.7709 9.43117C12.772 9.43014 12.773 9.42916 12.7739 9.42822C12.7759 9.42634 12.7776 9.42463 12.7793 9.42307C12.7825 9.41995 12.7852 9.41746 12.7873 9.41558C12.7915 9.4118 12.7932 9.41042 12.7923 9.41114C12.7906 9.41257 12.7783 9.42251 12.7542 9.43857C12.7064 9.47048 12.6097 9.52792 12.453 9.59059C12.141 9.71538 11.5766 9.86671 10.6667 9.86671V11.4667ZM14.1334 10V2.00004H12.5334V10H14.1334ZM13.3334 2.00004C12.9756 1.2845 12.9758 1.28443 12.9759 1.28437C12.9759 1.28435 12.9761 1.28429 12.9761 1.28425C12.9763 1.28418 12.9764 1.28411 12.9765 1.28406C12.9767 1.28395 12.9769 1.28389 12.9769 1.28386C12.977 1.2838 12.9768 1.2839 12.9763 1.28415C12.9753 1.28464 12.9731 1.28574 12.9697 1.2874C12.9628 1.29072 12.9512 1.29627 12.9352 1.30374C12.9032 1.31869 12.8536 1.34125 12.7891 1.36889C12.6597 1.42435 12.4723 1.49935 12.2471 1.57443C11.787 1.72778 11.2124 1.86671 10.6667 1.86671V3.46671C11.4544 3.46671 12.2131 3.2723 12.7531 3.09232C13.0278 3.00073 13.2571 2.90906 13.4194 2.83952C13.5007 2.80467 13.5657 2.77514 13.6118 2.75363C13.6349 2.74287 13.6532 2.7341 13.6666 2.72766C13.6732 2.72443 13.6786 2.72178 13.6828 2.71976C13.6848 2.71875 13.6865 2.71789 13.688 2.71719C13.6887 2.71684 13.6893 2.71653 13.6898 2.71626C13.6901 2.71613 13.6903 2.71601 13.6906 2.71589C13.6907 2.71584 13.6908 2.71576 13.6909 2.71573C13.691 2.71565 13.6912 2.71558 13.3334 2.00004ZM10.6667 1.86671C9.84219 1.86671 9.145 1.59638 8.29719 1.25726C7.47834 0.929717 6.50886 0.533374 5.33341 0.533374V2.13337C6.15797 2.13337 6.85516 2.4037 7.70297 2.74282C8.52182 3.07036 9.4913 3.46671 10.6667 3.46671V1.86671ZM5.33341 0.533374C4.24324 0.533374 3.47434 0.715379 2.95297 0.923926C2.69299 1.02792 2.49804 1.13715 2.3584 1.23023C2.28873 1.27668 2.23328 1.31882 2.19073 1.35385C2.16948 1.37136 2.15148 1.38706 2.13659 1.4006C2.12914 1.40737 2.12247 1.4136 2.11655 1.41924C2.1136 1.42206 2.11083 1.42474 2.10825 1.42726C2.10696 1.42852 2.10571 1.42974 2.10452 1.43092C2.10392 1.43151 2.10333 1.4321 2.10275 1.43267C2.10247 1.43295 2.10204 1.43338 2.1019 1.43352C2.10148 1.43394 2.10106 1.43436 2.66675 2.00004C3.23243 2.56573 3.23202 2.56614 3.23161 2.56655C3.23148 2.56668 3.23107 2.56709 3.2308 2.56735C3.23027 2.56788 3.22974 2.56841 3.22923 2.56892C3.22819 2.56994 3.22719 2.57092 3.22623 2.57186C3.22431 2.57374 3.22252 2.57546 3.22089 2.57701C3.21762 2.58013 3.21494 2.58262 3.21286 2.58451C3.20871 2.58828 3.20699 2.58966 3.20787 2.58894C3.2096 2.58751 3.22185 2.57757 3.24592 2.56151C3.29379 2.5296 3.3905 2.47216 3.54719 2.40949C3.85916 2.2847 4.42359 2.13337 5.33341 2.13337V0.533374ZM3.46675 14.6667L3.46675 2.00004L1.86675 2.00004L1.86675 14.6667H3.46675Z" fill="#1D1D1D"/>
</svg>
