<svg width="140" height="174" viewBox="0 0 140 174" fill="none" xmlns="http://www.w3.org/2000/svg">
    <g clip-path="url(#clip0_2109_30625)">
        <path d="M97.0775 53.2069C94.2183 55.4811 93.3664 57.0854 89.6358 66.8946L85.9784 76.5081L90.8983 78.407C95.2161 80.0525 95.864 80.4067 96.3379 81.4485C97.0259 82.9607 96.3878 84.5895 94.842 85.2927C93.9011 85.7208 93.0485 85.5408 88.8102 83.9808L83.869 82.2133L72.3842 112.869C66.0649 129.737 60.9454 143.626 61.0218 143.794C61.1594 144.096 92.0087 130.062 122.451 115.847L145.278 105.219L141.336 103.687C139.154 102.814 137.223 101.867 137.07 101.531C135.957 99.4415 136.311 97.9014 138.126 97.0759C139.201 96.5867 139.874 96.727 144.323 98.3938L149.359 100.28L152.793 90.89C155.712 82.9511 156.261 81.0382 156.333 78.6122C156.385 75.8714 156.329 75.572 154.724 72.0435C153.18 68.6494 152.899 68.2095 151.166 66.8076C149.176 65.1981 143.52 62.6608 141.641 62.5423C139.908 62.4786 137.785 63.6068 136.215 65.4161C133.073 69.1172 129.434 70.1236 125.18 68.5301C121.253 67.0311 118.9 63.6403 118.953 59.4788C118.982 54.639 118.053 53.3988 112.837 51.4725C106.365 49.1035 101.604 49.6061 97.0775 53.2069ZM108.744 85.0927C113.05 86.6221 113.948 87.349 113.934 89.0998C113.888 90.7833 112.807 91.8836 111.169 91.9392C109.4 91.9733 102.757 89.3172 102.359 88.4435C101.87 87.3682 101.977 85.819 102.615 85.0824C103.843 83.591 104.619 83.603 108.744 85.0927ZM125.89 91.4884C130.309 93.088 131.366 93.9859 131.068 95.8254C130.888 97.124 129.77 98.3221 128.658 98.463C127.613 98.5733 121.48 96.4151 120.34 95.5141C119.2 94.6131 118.937 93.2322 119.614 91.8692C120.61 89.9562 121.52 89.907 125.89 91.4884Z"
              fill="#76B9DC"/>
        <path d="M62.0772 150.127C56.1143 154.138 53.0734 161.362 54.4933 168.138C54.7871 169.586 55.7137 172.247 56.631 174.264C59.0924 179.674 60.4493 180.517 65.3805 179.855C68.6191 179.396 70.5105 179.631 73.1294 180.751C76.2677 182.122 77.7012 183.579 79.2912 187.074C80.4989 189.729 80.6733 190.379 80.567 192.375C80.3636 196.564 78.9254 199.287 75.324 202.426C73.14 204.312 72.2697 205.965 72.4109 207.969C72.5306 209.659 75.5361 215.998 77.1623 218.057C80.925 222.672 86.615 225.194 92.5271 224.816L94.7637 224.651L142.629 202.997L190.446 181.325L188.015 175.981C185.798 171.109 185.621 170.541 185.893 169.444C186.244 167.986 187.878 167.121 189.482 167.527C190.546 167.814 190.671 168 193.218 173.331L195.856 178.863L207.349 173.635C216.221 169.599 219.199 168.122 220.427 167.077C225.452 162.966 227.837 156.527 226.704 150.025C226.254 147.432 223.297 140.665 222.068 139.48C220.809 138.227 218.881 137.644 216.758 137.88C213.507 138.223 211.961 138.035 209.259 136.911C206.121 135.54 204.287 133.738 202.838 130.463C200.578 125.407 202.009 119.28 206.319 115.738C207.853 114.472 208.873 112.345 208.82 110.625C208.78 109.021 206.095 102.942 204.411 100.666C201.217 96.3191 195.899 93.5465 190.549 93.4657C186.421 93.3967 183.577 94.3662 171.828 99.8331L162.128 104.367L164.626 110.126C166.959 115.433 167.106 115.934 166.755 116.945C166.236 118.479 164.507 119.225 162.927 118.605C161.72 118.181 161.674 118.08 159.106 112.435L156.507 106.722L110.08 127.883C84.5221 139.551 62.9417 149.531 62.0772 150.127ZM170.925 126.202C171.971 126.538 172.126 126.791 174.175 131.294C176.162 135.663 176.263 136.063 175.928 137.108C175.464 138.495 173.799 139.293 172.326 138.909C171.262 138.622 171.152 138.469 168.982 133.697C166.811 128.925 166.768 128.742 167.25 127.752C167.91 126.438 169.538 125.738 170.925 126.202ZM180.23 146.832C181.388 147.238 181.513 147.424 183.516 151.827C184.663 154.347 185.598 156.761 185.55 157.188C185.495 158.227 183.992 159.56 182.849 159.634C180.961 159.762 180.279 158.977 178.261 154.542C177.222 152.256 176.396 149.996 176.384 149.434C176.389 147.484 178.357 146.102 180.23 146.832Z"
              fill="#76B9DC"/>
    </g>
    <defs>
        <clipPath id="clip0_2109_30625">
            <rect width="189.025" height="189.025" fill="white"
                  transform="translate(0.0898438 78.5093) rotate(-24.4623)"/>
        </clipPath>
    </defs>
</svg>
