<svg width="32" height="32" viewBox="0 0 32 32" fill="none" xmlns="http://www.w3.org/2000/svg">
<path fill-rule="evenodd" clip-rule="evenodd" d="M3.73977 6.66554C2.66797 8.52198 2.66797 11.0142 2.66797 15.9989C2.66797 20.9835 2.66797 23.4758 3.73977 25.3322C4.44191 26.5484 5.45182 27.5582 6.66798 28.2604C8.52442 29.3322 11.0167 29.3322 16.0013 29.3322C20.9859 29.3322 23.4783 29.3322 25.3347 28.2604C26.5508 27.5582 27.5607 26.5484 28.2628 25.3322C29.3347 23.4758 29.3347 20.9835 29.3347 15.9989C29.3347 11.0142 29.3347 8.52198 28.2628 6.66554C27.5607 5.44938 26.5508 4.43947 25.3347 3.73733C23.4783 2.66553 20.9859 2.66553 16.0013 2.66553C11.0167 2.66553 8.52442 2.66553 6.66798 3.73733C5.45182 4.43947 4.44191 5.44938 3.73977 6.66554ZM17.7207 12.1288C17.7207 11.1858 16.9496 10.4189 16.0014 10.4189C15.0541 10.4189 14.2821 11.1858 14.2821 12.1288C14.2821 13.0707 15.0541 13.8377 16.0014 13.8377C16.9496 13.8377 17.7207 13.0707 17.7207 12.1288ZM20.1539 12.1288C20.1539 14.4052 18.2919 16.2568 16.0014 16.2568C13.7114 16.2568 11.8489 14.4052 11.8489 12.1288C11.8489 9.85126 13.7114 7.99886 16.0014 7.99886C18.2919 7.99886 20.1539 9.85126 20.1539 12.1288ZM20.0927 18.6321C19.342 19.1013 18.5267 19.4338 17.6814 19.6254L20.0029 21.9338C20.4785 22.4059 20.4785 23.1721 20.0029 23.6445C19.5279 24.117 18.7577 24.117 18.2831 23.6445L16.0009 21.376L13.7207 23.6445C13.4828 23.8805 13.1713 23.9987 12.8597 23.9987C12.5487 23.9987 12.2376 23.8805 11.9999 23.6445C11.5247 23.1721 11.5247 22.4063 11.9994 21.9338L14.3209 19.6254C13.4755 19.4338 12.6603 19.1007 11.9095 18.6321C11.3413 18.2761 11.1705 17.5295 11.5287 16.9641C11.8858 16.3977 12.6365 16.2273 13.2057 16.5835C14.9056 17.6468 17.0957 17.6473 18.7965 16.5835C19.3658 16.2273 20.1165 16.3977 20.4741 16.9641C20.8323 17.5291 20.661 18.2761 20.0927 18.6321Z" fill="white"/>
</svg>
