<svg width="32" height="32" viewBox="0 0 32 32" fill="none" xmlns="http://www.w3.org/2000/svg">
<path fill-rule="evenodd" clip-rule="evenodd" d="M10.668 2.66553H21.3346C25.7529 2.66553 29.3346 6.24725 29.3346 10.6655V21.3322C29.3346 25.7504 25.7529 29.3322 21.3346 29.3322H10.668C6.24969 29.3322 2.66797 25.7504 2.66797 21.3322V10.6655C2.66797 6.24725 6.24969 2.66553 10.668 2.66553ZM21.3362 22.6979C21.3362 22.6979 20.9587 23.6205 19.9522 23.1801L16.1778 20.2864L13.7454 22.4882C13.7454 22.4882 13.5567 22.635 13.347 22.5511C13.347 22.5511 13.1583 22.5301 12.9486 21.8381C12.718 21.1252 11.5856 17.4137 11.5856 17.4137L7.83222 16.1556C7.83222 16.1556 7.26606 15.9459 7.20315 15.5055C7.14024 15.0652 7.85318 14.8136 7.85318 14.8136L22.7621 8.96325C22.7621 8.96325 23.9782 8.41806 23.9992 9.31972L21.3362 22.6979ZM21.1035 11.6897C21.1245 11.3752 20.6003 11.6897 20.6003 11.6897L12.3595 16.9319C12.2337 17.0158 12.1918 17.1626 12.2337 17.2884L13.2192 20.5176C13.2821 20.7063 13.5547 20.6853 13.5967 20.4757L13.8273 18.5046C13.8273 18.4207 13.8693 18.3578 13.9322 18.3159C14.729 17.6029 20.6632 12.2768 20.9148 12.0252C21.1874 11.7316 21.1035 11.6897 21.1035 11.6897Z" fill="white"/>
</svg>
