<svg width="32" height="32" viewBox="0 0 32 32" fill="none" xmlns="http://www.w3.org/2000/svg">
<path fill-rule="evenodd" clip-rule="evenodd" d="M3.73977 6.66554C2.66797 8.52198 2.66797 11.0142 2.66797 15.9989C2.66797 20.9835 2.66797 23.4758 3.73977 25.3322C4.44191 26.5484 5.45182 27.5582 6.66797 28.2604C8.52436 29.3322 11.0167 29.3322 16.0013 29.3322C20.986 29.3322 23.4782 29.3322 25.3346 28.2604C26.5508 27.5582 27.5607 26.5484 28.2628 25.3322C29.3346 23.4758 29.3346 20.9835 29.3346 15.9989C29.3346 11.0142 29.3346 8.52198 28.2628 6.66554C27.5607 5.44938 26.5508 4.43947 25.3346 3.73733C23.4782 2.66553 20.986 2.66553 16.0013 2.66553C11.0167 2.66553 8.52436 2.66553 6.66797 3.73733C5.45182 4.43947 4.44191 5.44938 3.73977 6.66554ZM7.66799 10.9989H9.61244C10.1094 10.9989 10.2963 11.2164 10.4827 11.7548C11.4336 14.525 13.0372 16.9461 13.6963 16.9461C13.9435 16.9461 14.0569 16.8322 14.0569 16.2044V13.341C14.0123 12.5259 13.7276 12.1734 13.5166 11.9124C13.3864 11.7511 13.2844 11.6248 13.2844 11.4458C13.2844 11.2283 13.4701 10.9989 13.7791 10.9989H16.8347C17.2467 10.9989 17.3902 11.2192 17.3902 11.7137V15.5658C17.3902 15.9778 17.5691 16.122 17.6927 16.122C17.9399 16.122 18.1459 15.9778 18.5991 15.5246C19.9999 13.959 20.9887 11.5488 20.9887 11.5488C21.1124 11.2604 21.3403 10.9989 21.8347 10.9989H23.7791C24.3672 10.9989 24.4907 11.3016 24.3672 11.7137C24.1376 12.7657 22.0785 15.7183 21.7855 16.1348L21.7509 16.1838C21.5449 16.5133 21.4625 16.6782 21.7509 17.0489C21.8524 17.1912 22.0692 17.4035 22.3172 17.6464C22.5721 17.8961 22.8601 18.1782 23.0899 18.4498C23.9252 19.3894 24.5546 20.1821 24.73 20.7285C24.8902 21.2766 24.6124 21.5545 24.0568 21.5545H22.1124C21.5916 21.5545 21.3294 21.2627 20.7627 20.6323C20.5224 20.3651 20.2276 20.037 19.8351 19.6446C18.6815 18.5322 18.1871 18.388 17.8987 18.388C17.5073 18.388 17.3902 18.4989 17.3902 19.0545V20.7982C17.3902 21.2766 17.2373 21.5545 16.0013 21.5545C13.9413 21.5545 11.6775 20.3037 10.0707 17.9966C7.66053 14.6182 7.00132 12.0638 7.00132 11.5488C7.00132 11.2604 7.11244 10.9989 7.66799 10.9989Z" fill="white"/>
</svg>
