<svg width="32" height="32" viewBox="0 0 32 32" fill="none" xmlns="http://www.w3.org/2000/svg">
<path fill-rule="evenodd" clip-rule="evenodd" d="M3.73977 6.66554C2.66797 8.52198 2.66797 11.0142 2.66797 15.9989C2.66797 20.9835 2.66797 23.4758 3.73977 25.3322C4.44191 26.5484 5.45182 27.5583 6.66798 28.2604C8.52442 29.3322 11.0167 29.3322 16.0013 29.3322C20.9859 29.3322 23.4783 29.3322 25.3347 28.2604C26.5508 27.5583 27.5607 26.5484 28.2628 25.3322C29.3347 23.4758 29.3347 20.9835 29.3347 15.9989C29.3347 11.0142 29.3347 8.52198 28.2628 6.66554C27.5607 5.44938 26.5508 4.43947 25.3347 3.73733C23.4783 2.66553 20.9859 2.66553 16.0013 2.66553C11.0167 2.66553 8.52442 2.66553 6.66798 3.73733C5.45182 4.43947 4.44191 5.44938 3.73977 6.66554ZM16.0013 2.66553L15.5197 9.58726C15.2985 12.7661 12.7686 15.2961 9.5897 15.5173L2.66797 15.9989L9.5897 16.4805C12.7686 16.7017 15.2985 19.2316 15.5197 22.4105L16.0013 29.3322L16.4829 22.4105C16.7041 19.2316 19.234 16.7017 22.4129 16.4805L29.3347 15.9989L22.4129 15.5173C19.234 15.2961 16.7041 12.7661 16.4829 9.58726L16.0013 2.66553Z" fill="white"/>
</svg>
